<svg width="20" height="23" viewBox="0 0 20 23" fill="none" xmlns="http://www.w3.org/2000/svg">
<g clip-path="url(#clip0_7_235)">
<path d="M-0.625 12.4584C3.425 4.79171 15.575 4.79171 19.625 12.4584" stroke="#4C4C4C" stroke-width="1.5" stroke-linecap="round" stroke-linejoin="round"/>
<path d="M9.5 16.2917C9.05679 16.2917 8.61792 16.2174 8.20844 16.0729C7.79897 15.9284 7.42691 15.7166 7.11351 15.4497C6.80012 15.1827 6.55152 14.8658 6.38191 14.517C6.2123 14.1682 6.125 13.7943 6.125 13.4167C6.125 13.0392 6.2123 12.6653 6.38191 12.3165C6.55152 11.9677 6.80012 11.6508 7.11351 11.3838C7.42691 11.1168 7.79897 10.9051 8.20844 10.7606C8.61792 10.6161 9.05679 10.5417 9.5 10.5417C10.3951 10.5417 11.2536 10.8446 11.8865 11.3838C12.5194 11.923 12.875 12.6543 12.875 13.4167C12.875 14.1792 12.5194 14.9105 11.8865 15.4497C11.2536 15.9888 10.3951 16.2917 9.5 16.2917Z" stroke="#4C4C4C" stroke-width="1.5" stroke-linecap="round" stroke-linejoin="round"/>
</g>
<defs>
<clipPath id="clip0_7_235">
<rect width="20" height="23" fill="white"/>
</clipPath>
</defs>
</svg>
