<svg width="301" height="301" viewBox="0 0 301 301" fill="none" xmlns="http://www.w3.org/2000/svg">
<g filter="url(#filter0_d_18_24)">
<circle cx="150.5" cy="146.5" r="146.5" fill="white"/>
</g>
<path d="M96.625 106.219C96.625 98.2871 99.7758 90.6803 105.384 85.0718C110.993 79.4633 118.6 76.3125 126.531 76.3125C134.463 76.3125 142.07 79.4633 147.678 85.0718C153.287 90.6803 156.438 98.2871 156.438 106.219C156.438 114.15 153.287 121.757 147.678 127.366C142.07 132.974 134.463 136.125 126.531 136.125C118.6 136.125 110.993 132.974 105.384 127.366C99.7758 121.757 96.625 114.15 96.625 106.219ZM167.313 122.531C167.313 119.318 167.945 116.136 169.175 113.167C170.405 110.199 172.207 107.501 174.479 105.229C176.751 102.957 179.449 101.155 182.417 99.9251C185.386 98.6954 188.568 98.0625 191.781 98.0625C194.995 98.0625 198.176 98.6954 201.145 99.9251C204.114 101.155 206.811 102.957 209.083 105.229C211.355 107.501 213.158 110.199 214.387 113.167C215.617 116.136 216.25 119.318 216.25 122.531C216.25 129.021 213.672 135.244 209.083 139.833C204.495 144.422 198.271 147 191.781 147C185.292 147 179.068 144.422 174.479 139.833C169.89 135.244 167.313 129.021 167.313 122.531ZM74.875 198.656C74.875 184.956 80.3173 171.817 90.0048 162.13C99.6922 152.442 112.831 147 126.531 147C140.231 147 153.37 152.442 163.058 162.13C172.745 171.817 178.188 184.956 178.188 198.656V198.678L178.18 199.541C178.165 200.463 177.915 201.366 177.455 202.165C176.995 202.964 176.338 203.633 175.549 204.108C160.753 213.018 143.803 217.714 126.531 217.688C108.609 217.688 91.8328 212.729 77.5213 204.108C76.7299 203.633 76.0725 202.965 75.6108 202.166C75.1491 201.367 74.8984 200.463 74.8823 199.541L74.875 198.656ZM189.063 198.678L189.055 199.722C189.015 202.138 188.438 204.516 187.366 206.682C200.022 207.463 212.664 204.939 224.051 199.359C224.932 198.929 225.679 198.269 226.215 197.448C226.752 196.627 227.056 195.677 227.096 194.698C227.352 188.617 226.033 182.573 223.267 177.151C220.502 171.729 216.383 167.114 211.309 163.751C206.236 160.389 200.381 158.393 194.31 157.958C188.239 157.523 182.159 158.663 176.658 161.268C184.728 172.06 189.079 185.18 189.055 198.656L189.063 198.678Z" fill="#F8C137"/>
<defs>
<filter id="filter0_d_18_24" x="0" y="0" width="301" height="301" filterUnits="userSpaceOnUse" color-interpolation-filters="sRGB">
<feFlood flood-opacity="0" result="BackgroundImageFix"/>
<feColorMatrix in="SourceAlpha" type="matrix" values="0 0 0 0 0 0 0 0 0 0 0 0 0 0 0 0 0 0 127 0" result="hardAlpha"/>
<feOffset dy="4"/>
<feGaussianBlur stdDeviation="2"/>
<feComposite in2="hardAlpha" operator="out"/>
<feColorMatrix type="matrix" values="0 0 0 0 0 0 0 0 0 0 0 0 0 0 0 0 0 0 0.25 0"/>
<feBlend mode="normal" in2="BackgroundImageFix" result="effect1_dropShadow_18_24"/>
<feBlend mode="normal" in="SourceGraphic" in2="effect1_dropShadow_18_24" result="shape"/>
</filter>
</defs>
</svg>
