<svg width="301" height="301" viewBox="0 0 301 301" fill="none" xmlns="http://www.w3.org/2000/svg">
<g filter="url(#filter0_d_18_25)">
<circle cx="150.5" cy="146.5" r="146.5" fill="white"/>
</g>
<path d="M107.25 109.615C107.25 121.183 111.859 132.277 120.064 140.456C128.269 148.636 139.397 153.231 151 153.231C162.603 153.231 173.731 148.636 181.936 140.456C190.141 132.277 194.75 121.183 194.75 109.615C194.75 98.0479 190.141 86.9541 181.936 78.7746C173.731 70.5952 162.603 66 151 66C139.397 66 128.269 70.5952 120.064 78.7746C111.859 86.9541 107.25 98.0479 107.25 109.615ZM213.5 228H82.25C80.5924 228 79.0027 227.344 77.8306 226.175C76.6585 225.007 76 223.422 76 221.769V203.077C76 194.814 79.2924 186.89 85.1529 181.048C91.0134 175.205 98.962 171.923 107.25 171.923H194.75C203.038 171.923 210.987 175.205 216.847 181.048C222.708 186.89 226 194.814 226 203.077V221.769C226 223.422 225.342 225.007 224.169 226.175C222.997 227.344 221.408 228 219.75 228H213.5Z" fill="#F8C137"/>
<defs>
<filter id="filter0_d_18_25" x="0" y="0" width="301" height="301" filterUnits="userSpaceOnUse" color-interpolation-filters="sRGB">
<feFlood flood-opacity="0" result="BackgroundImageFix"/>
<feColorMatrix in="SourceAlpha" type="matrix" values="0 0 0 0 0 0 0 0 0 0 0 0 0 0 0 0 0 0 127 0" result="hardAlpha"/>
<feOffset dy="4"/>
<feGaussianBlur stdDeviation="2"/>
<feComposite in2="hardAlpha" operator="out"/>
<feColorMatrix type="matrix" values="0 0 0 0 0 0 0 0 0 0 0 0 0 0 0 0 0 0 0.25 0"/>
<feBlend mode="normal" in2="BackgroundImageFix" result="effect1_dropShadow_18_25"/>
<feBlend mode="normal" in="SourceGraphic" in2="effect1_dropShadow_18_25" result="shape"/>
</filter>
</defs>
</svg>
