<svg width="299" height="275" viewBox="0 0 299 275" fill="none" xmlns="http://www.w3.org/2000/svg">
<path d="M14.4233 204.468C-25.3266 206.77 38.5593 113.258 96.0777 72.9836C153.596 32.7088 303.992 32.8027 206.83 85.7173C109.669 138.632 225.788 174.386 193.85 212.617C163.581 248.849 132.636 179.173 78.9313 250.153C25.2266 321.132 54.1731 202.165 14.4233 204.468Z" stroke="white" stroke-width="2"/>
<path d="M26.079 190.35C-7.45592 192.307 46.4769 113.42 95.0168 79.4316C143.557 45.4436 270.434 45.4633 188.445 90.1267C106.457 134.79 204.404 164.897 177.445 197.151C151.895 227.719 125.816 168.971 80.4816 228.852C35.1469 288.733 59.6139 188.392 26.079 190.35Z" stroke="white" stroke-width="2"/>
<path d="M36.5404 178.512C7.71433 180.193 54.0694 112.382 95.7917 83.1678C137.514 53.9535 246.576 53.9784 176.103 92.3674C105.629 130.756 189.825 156.644 166.653 184.369C144.693 210.644 122.272 160.141 83.3067 211.614C44.3412 263.086 65.3666 176.831 36.5404 178.512Z" stroke="white" stroke-width="2"/>
<path d="M43.7502 171.038C18.8322 172.482 58.8812 113.862 94.938 88.6148C130.995 63.3676 225.273 63.4252 164.365 96.5962C103.457 129.767 176.249 152.179 156.227 176.145C137.252 198.858 117.854 155.181 84.188 199.676C50.5215 244.171 68.6682 169.594 43.7502 171.038Z" stroke="white" stroke-width="2"/>
<path d="M49.9112 163.258C28.8387 164.474 62.6952 114.9 93.1827 93.5521C123.67 72.2045 203.4 72.2731 151.898 100.318C100.396 128.362 161.959 147.335 145.033 167.601C128.991 186.809 112.577 149.861 84.1149 187.49C55.653 225.118 70.9837 162.042 49.9112 163.258Z" stroke="white" stroke-width="2"/>
<path d="M58.929 154.007C42.9344 154.931 68.6343 117.302 91.776 101.098C114.918 84.8941 175.435 84.9432 136.342 106.231C97.2498 127.519 143.977 141.916 131.129 157.3C118.952 171.879 106.495 143.836 84.8897 172.397C63.2849 200.958 74.9237 153.083 58.929 154.007Z" stroke="white" stroke-width="2"/>
<path d="M67.1257 147.625C54.3569 148.372 74.8983 118.336 93.3829 105.393C111.867 92.4497 160.177 92.4473 128.956 109.457C97.7344 126.467 135.026 137.921 124.759 150.202C115.028 161.841 105.103 139.478 87.8369 162.278C70.5707 185.078 79.8945 146.877 67.1257 147.625Z" stroke="white" stroke-width="2"/>
<path d="M72.0199 142.153C61.4094 142.778 78.4877 117.819 93.8514 107.062C109.215 96.3038 149.358 96.2869 123.409 110.427C97.4608 124.567 128.445 134.071 119.909 144.276C111.82 153.948 103.58 135.374 89.2253 154.32C74.8709 173.266 82.6304 141.528 72.0199 142.153Z" stroke="white" stroke-width="2"/>
<path d="M81.5468 132.753C74.986 133.146 85.5617 117.715 95.0681 111.059C104.574 104.403 129.394 104.366 113.341 113.119C97.2881 121.872 116.439 127.723 111.155 134.033C106.147 140.014 101.064 128.544 92.1766 140.258C83.289 151.973 88.1075 132.36 81.5468 132.753Z" stroke="white" stroke-width="2"/>
</svg>
