<svg width="427" height="303" viewBox="0 0 427 303" fill="none" xmlns="http://www.w3.org/2000/svg">
<path d="M-45.8166 107.548C-105.124 70.9413 80.3643 1 203.273 1C326.181 1 541.731 152.13 349.29 130.453C156.85 108.775 287.45 276.624 203.273 299.375C123.495 320.937 149.078 189.964 0.810905 237.819C-147.456 285.673 13.4906 144.155 -45.8166 107.548Z" stroke="white" stroke-width="2"/>
<path d="M-14.9293 99.0068C-64.9788 68.1451 91.5552 9.18018 195.278 9.18018C299.001 9.18018 480.904 136.593 318.503 118.317C156.102 100.041 266.316 241.549 195.278 260.729C127.953 278.907 149.543 168.489 24.4198 208.833C-100.703 249.178 35.1203 129.869 -14.9293 99.0068Z" stroke="white" stroke-width="2"/>
<path d="M11.9553 92.5374C-31.0645 66.0062 103.484 15.3154 192.638 15.3154C281.792 15.3154 438.146 124.849 298.555 109.138C158.964 93.4267 253.698 215.077 192.638 231.566C134.769 247.194 153.327 152.269 45.7776 186.953C-61.7713 221.636 54.9751 119.068 11.9553 92.5374Z" stroke="white" stroke-width="2"/>
<path d="M29.7971 89.0591C-7.38114 66.1119 108.897 22.2687 185.945 22.2687C262.993 22.2687 398.116 117.006 277.48 103.417C156.844 89.8283 238.714 195.046 185.945 209.308C135.935 222.824 151.972 140.722 59.0268 170.72C-33.9183 200.718 66.9753 112.006 29.7971 89.0591Z" stroke="white" stroke-width="2"/>
<path d="M46.4418 84.0897C15.0062 64.6766 113.324 27.5858 178.471 27.5858C243.618 27.5858 357.87 107.732 255.868 96.2364C153.865 84.7404 223.089 173.753 178.471 185.818C136.185 197.253 149.745 127.796 71.1567 153.174C-7.43203 178.552 77.8775 103.503 46.4418 84.0897Z" stroke="white" stroke-width="2"/>
<path d="M68.6602 79.8781C44.7988 65.1441 119.427 36.9931 168.878 36.9931C218.328 36.9931 305.052 97.8223 227.626 89.0971C150.2 80.3719 202.745 147.93 168.878 157.087C136.78 165.766 147.073 113.05 87.4202 132.311C27.767 151.573 92.5217 94.6121 68.6602 79.8781Z" stroke="white" stroke-width="2"/>
<path d="M86.8208 78.9563C67.7614 67.209 127.371 44.7643 166.87 44.7643C206.369 44.7643 275.64 93.2632 213.795 86.3067C151.951 79.3501 193.922 133.214 166.87 140.515C141.232 147.435 149.454 105.404 101.805 120.761C54.1572 136.118 105.88 90.7037 86.8208 78.9563Z" stroke="white" stroke-width="2"/>
<path d="M99.3317 76.0244C83.4901 66.2681 133.036 47.6276 165.866 47.6276C198.696 47.6276 256.272 87.9064 204.869 82.1289C153.466 76.3515 188.351 121.086 165.866 127.15C144.557 132.896 151.39 97.9897 111.786 110.744C72.1827 123.498 115.173 85.7807 99.3317 76.0244Z" stroke="white" stroke-width="2"/>
<path d="M122.429 72.1116C112.627 66.0886 143.284 54.5809 163.598 54.5809C183.911 54.5809 219.536 79.4469 187.731 75.8802C155.925 72.3135 177.51 99.9302 163.598 103.674C150.412 107.221 154.641 85.6718 130.136 93.5455C105.631 101.419 132.231 78.1346 122.429 72.1116Z" stroke="white" stroke-width="2"/>
</svg>
