<svg width="538" height="331" viewBox="0 0 538 331" fill="none" xmlns="http://www.w3.org/2000/svg">
<path d="M516.734 213.327C581.562 253.341 378.808 329.793 244.459 329.793C110.111 329.793 -125.503 164.595 84.8499 188.29C295.203 211.986 152.446 28.5131 244.459 3.6442C331.663 -19.9247 303.699 123.24 465.767 70.9305C627.835 18.6216 451.907 173.313 516.734 213.327Z" stroke="white" stroke-width="2"/>
<path d="M482.972 222.663C537.68 256.398 366.576 320.851 253.198 320.851C139.821 320.851 -59.0146 181.579 118.503 201.556C296.021 221.533 175.548 66.8535 253.198 45.8875C326.789 26.0175 303.19 146.714 439.96 102.614C576.73 58.5144 428.264 188.929 482.972 222.663Z" stroke="white" stroke-width="2"/>
<path d="M453.585 229.735C500.609 258.736 353.537 314.145 256.084 314.145C158.631 314.145 -12.2769 194.416 140.308 211.589C292.892 228.763 189.34 95.7888 256.084 77.7648C319.339 60.683 299.055 164.443 416.614 126.531C534.174 88.6199 406.561 200.734 453.585 229.735Z" stroke="white" stroke-width="2"/>
<path d="M434.082 233.537C474.721 258.62 347.62 306.545 263.4 306.545C179.18 306.545 31.4792 202.989 163.345 217.843C295.21 232.696 205.719 117.685 263.4 102.096C318.066 87.3213 300.535 177.065 402.132 144.275C503.729 111.484 393.444 208.454 434.082 233.537Z" stroke="white" stroke-width="2"/>
<path d="M415.888 238.969C450.25 260.189 342.781 300.733 271.57 300.733C200.358 300.733 75.4715 213.126 186.969 225.692C298.466 238.258 222.798 140.96 271.57 127.771C317.792 115.273 302.969 191.194 388.873 163.454C474.777 135.714 381.527 217.749 415.888 238.969Z" stroke="white" stroke-width="2"/>
<path d="M391.602 243.573C417.684 259.678 336.109 290.449 282.056 290.449C228.003 290.449 133.207 223.958 217.839 233.495C302.472 243.033 245.036 169.186 282.056 159.176C317.141 149.69 305.89 207.313 371.096 186.259C436.302 165.205 365.519 227.467 391.602 243.573Z" stroke="white" stroke-width="2"/>
<path d="M371.751 244.58C392.584 257.421 327.426 281.955 284.25 281.955C241.075 281.955 165.356 228.942 232.957 236.546C300.558 244.15 254.68 185.272 284.25 177.291C312.275 169.728 303.288 215.67 355.371 198.884C407.455 182.098 350.917 231.739 371.751 244.58Z" stroke="white" stroke-width="2"/>
<path d="M358.075 247.785C375.391 258.449 321.234 278.825 285.348 278.825C249.462 278.825 186.527 234.797 242.714 241.112C298.902 247.428 260.77 198.529 285.348 191.901C308.641 185.62 301.171 223.775 344.461 209.834C387.751 195.893 340.759 237.121 358.075 247.785Z" stroke="white" stroke-width="2"/>
<path d="M332.828 252.062C343.542 258.646 310.032 271.225 287.827 271.225C265.623 271.225 226.682 244.044 261.448 247.943C296.214 251.841 272.62 221.654 287.827 217.562C302.24 213.684 297.618 237.24 324.404 228.633C351.19 220.027 322.113 245.478 332.828 252.062Z" stroke="white" stroke-width="2"/>
</svg>
