<svg width="10" height="13" viewBox="0 0 10 13" fill="none" xmlns="http://www.w3.org/2000/svg">
<rect width="10" height="13" fill="white"/>
<path d="M1.25 7.04169C2.75 2.70835 7.25 2.70835 8.75 7.04169" stroke="#4C4C4C" stroke-width="1.5" stroke-linecap="round" stroke-linejoin="round"/>
<path d="M5 9.20837C4.83585 9.20837 4.6733 9.16634 4.52165 9.08468C4.36999 9.00301 4.23219 8.88332 4.11612 8.73242C4.00004 8.58153 3.90797 8.40239 3.84515 8.20523C3.78233 8.00808 3.75 7.79677 3.75 7.58337C3.75 7.36998 3.78233 7.15867 3.84515 6.96151C3.90797 6.76436 4.00004 6.58522 4.11612 6.43433C4.23219 6.28343 4.36999 6.16373 4.52165 6.08207C4.6733 6.00041 4.83585 5.95837 5 5.95837C5.33152 5.95837 5.64946 6.12958 5.88388 6.43433C6.1183 6.73907 6.25 7.1524 6.25 7.58337C6.25 8.01435 6.1183 8.42768 5.88388 8.73242C5.64946 9.03717 5.33152 9.20837 5 9.20837Z" stroke="#4C4C4C" stroke-width="1.5" stroke-linecap="round" stroke-linejoin="round"/>
</svg>
