<svg width="17" height="20" viewBox="0 0 17 20" fill="none" xmlns="http://www.w3.org/2000/svg">
<rect width="17" height="20" fill="white"/>
<path d="M2.125 10.8333C4.675 4.16665 12.325 4.16665 14.875 10.8333" stroke="#4C4C4C" stroke-width="1.5" stroke-linecap="round" stroke-linejoin="round"/>
<path d="M8.5 14.1666C8.22094 14.1666 7.94461 14.102 7.6868 13.9763C7.42898 13.8507 7.19472 13.6665 6.9974 13.4344C6.80007 13.2022 6.64355 12.9266 6.53676 12.6233C6.42996 12.32 6.375 11.9949 6.375 11.6666C6.375 11.3383 6.42996 11.0132 6.53676 10.7099C6.64355 10.4066 6.80007 10.131 6.9974 9.89886C7.19472 9.66671 7.42898 9.48256 7.6868 9.35693C7.94461 9.23129 8.22094 9.16663 8.5 9.16663C9.06358 9.16663 9.60409 9.43002 10.0026 9.89886C10.4011 10.3677 10.625 11.0036 10.625 11.6666C10.625 12.3297 10.4011 12.9656 10.0026 13.4344C9.60409 13.9032 9.06358 14.1666 8.5 14.1666Z" stroke="#4C4C4C" stroke-width="1.5" stroke-linecap="round" stroke-linejoin="round"/>
</svg>
