<svg width="43" height="43" viewBox="0 0 43 43" fill="none" xmlns="http://www.w3.org/2000/svg">
<path d="M5.375 23.2916C11.825 8.95829 31.175 8.95829 37.625 23.2916" stroke="#4C4C4C" stroke-width="1.5" stroke-linecap="round" stroke-linejoin="round"/>
<path d="M21.5 30.4583C20.7941 30.4583 20.0952 30.3192 19.4431 30.0491C18.791 29.779 18.1984 29.3831 17.6993 28.884C17.2002 28.3848 16.8043 27.7923 16.5341 27.1402C16.264 26.4881 16.125 25.7891 16.125 25.0833C16.125 24.3774 16.264 23.6785 16.5341 23.0263C16.8043 22.3742 17.2002 21.7817 17.6993 21.2826C18.1984 20.7834 18.791 20.3875 19.4431 20.1174C20.0952 19.8473 20.7941 19.7083 21.5 19.7083C22.9255 19.7083 24.2927 20.2745 25.3007 21.2826C26.3087 22.2906 26.875 23.6577 26.875 25.0833C26.875 26.5088 26.3087 27.8759 25.3007 28.884C24.2927 29.892 22.9255 30.4583 21.5 30.4583Z" stroke="#4C4C4C" stroke-width="1.5" stroke-linecap="round" stroke-linejoin="round"/>
</svg>
