<svg width="45" height="45" viewBox="0 0 75 75" fill="none" xmlns="http://www.w3.org/2000/svg">
<path d="M25.9938 10.8349C20.9511 8.29096 13.9027 7.04478 4.4663 7.00054C3.57635 6.98776 2.70386 7.26197 1.96518 7.78659C1.35886 8.21963 0.862539 8.80345 0.519868 9.48672C0.177198 10.17 -0.00132364 10.9318 7.38873e-06 11.705V53.8981C7.38873e-06 56.7503 1.92051 58.902 4.4663 58.902C14.3857 58.902 24.3357 59.8813 30.2954 65.8334C30.377 65.9152 30.4794 65.9699 30.5901 65.9907C30.7008 66.0114 30.8148 65.9974 30.918 65.9502C31.0212 65.9031 31.109 65.825 31.1706 65.7255C31.2321 65.6261 31.2646 65.5098 31.2641 65.391V15.6751C31.2643 15.3397 31.1964 15.0081 31.0649 14.7028C30.9335 14.3975 30.7415 14.1256 30.502 13.9054C29.1369 12.6722 27.6205 11.6394 25.9938 10.8349ZM65.0292 7.78217C64.2902 7.25885 63.4177 6.98618 62.5281 7.00054C53.0917 7.04478 46.0433 8.28506 41.0006 10.8349C39.374 11.638 37.8572 12.6688 36.491 13.8995C36.2521 14.1201 36.0606 14.3921 35.9294 14.6973C35.7982 15.0026 35.7303 15.334 35.7304 15.6692V65.388C35.7303 65.5022 35.7621 65.6138 35.8219 65.7089C35.8816 65.804 35.9666 65.8784 36.0662 65.9226C36.1658 65.9669 36.2755 65.9791 36.3816 65.9577C36.4877 65.9363 36.5855 65.8823 36.6627 65.8024C40.2455 62.0418 46.5332 58.8976 62.5337 58.8991C63.7182 58.8991 64.8543 58.4019 65.6918 57.5168C66.5294 56.6318 67 55.4314 67 54.1798V11.7065C67.0016 10.9317 66.8227 10.1684 66.479 9.48398C66.1353 8.79956 65.6374 8.21509 65.0292 7.78217Z" fill="#FF900E"/>
</svg>
