<svg width="68" height="68" viewBox="0 0 68 68" fill="none" xmlns="http://www.w3.org/2000/svg">
<path fill-rule="evenodd" clip-rule="evenodd" d="M27.5032 6.82551C25.5 8.60201 25.5 11.8518 25.5 18.3487V49.6513C25.5 56.1482 25.5 59.398 27.5032 61.1745C29.5063 62.951 32.5692 62.4183 38.6948 61.3502L45.2965 60.1998C52.0795 59.0155 55.471 58.4233 57.4855 55.9357C59.5 53.4452 59.5 49.8468 59.5 42.6473V25.3527C59.5 18.156 59.5 14.5577 57.4883 12.0672C55.471 9.57951 52.0767 8.98735 45.2937 7.80585L38.6977 6.65268C32.572 5.58451 29.5092 5.05185 27.506 6.82835M34 28.8122C35.173 28.8122 36.125 29.8067 36.125 31.0335V36.9665C36.125 38.1933 35.173 39.1878 34 39.1878C32.827 39.1878 31.875 38.1933 31.875 36.9665V31.0335C31.875 29.8067 32.827 28.8122 34 28.8122Z" fill="white"/>
<path d="M21.3832 12.75C15.5522 12.7585 12.512 12.886 10.574 14.824C8.5 16.898 8.5 20.2357 8.5 26.9167V41.0833C8.5 47.7615 8.5 51.0992 10.574 53.176C12.512 55.1112 15.5522 55.2415 21.3832 55.25C21.25 53.482 21.25 51.442 21.25 49.2348V18.7652C21.25 16.5552 21.25 14.5152 21.3832 12.75Z" fill="white"/>
</svg>
