<svg width="18" height="12" viewBox="0 0 18 12" fill="none" xmlns="http://www.w3.org/2000/svg">
<path d="M16.6801 4.8H1.3201C0.657698 4.8 0.600098 5.3364 0.600098 6C0.600098 6.6636 0.657698 7.2 1.3201 7.2H16.6801C17.3425 7.2 17.4001 6.6636 17.4001 6C17.4001 5.3364 17.3425 4.8 16.6801 4.8ZM16.6801 9.6H1.3201C0.657698 9.6 0.600098 10.1364 0.600098 10.8C0.600098 11.4636 0.657698 12 1.3201 12H16.6801C17.3425 12 17.4001 11.4636 17.4001 10.8C17.4001 10.1364 17.3425 9.6 16.6801 9.6ZM1.3201 2.4H16.6801C17.3425 2.4 17.4001 1.8636 17.4001 1.2C17.4001 0.5364 17.3425 0 16.6801 0H1.3201C0.657698 0 0.600098 0.5364 0.600098 1.2C0.600098 1.8636 0.657698 2.4 1.3201 2.4Z" fill="#1E1E1E"/>
</svg>
